<?xml version="1.0" encoding="utf-8"?>
<!-- Generator: Adobe Illustrator 19.0.1, SVG Export Plug-In . SVG Version: 6.00 Build 0)  -->
<svg version="1.1" id="Слой_1" xmlns="http://www.w3.org/2000/svg" xmlns:xlink="http://www.w3.org/1999/xlink" x="0px" y="0px"
	 viewBox="0 0 126.8 128.3" style="enable-background:new 0 0 126.8 128.3;" xml:space="preserve">
<style type="text/css">
	.st0{fill:url(#SVGID_1_);}
	.st1{fill:url(#SVGID_2_);}
	.st2{fill:url(#SVGID_3_);}
	.st3{fill:url(#SVGID_4_);}
	.st4{fill:url(#SVGID_5_);}
	.st5{fill:url(#SVGID_6_);}
	.st6{fill:url(#SVGID_7_);}
	.st7{fill:url(#SVGID_8_);}
	.st8{fill:url(#SVGID_9_);}
	.st9{fill:url(#SVGID_10_);}
	.st10{fill:url(#SVGID_11_);}
</style>
<g>
	<linearGradient id="SVGID_1_" gradientUnits="userSpaceOnUse" x1="-0.8262" y1="6.8007" x2="20.919" y2="28.5458">
		<stop  offset="0" style="stop-color:#5368FF"/>
		<stop  offset="1" style="stop-color:#662DB5"/>
	</linearGradient>
	<path class="st0" d="M9.7,4.8C9,4.9,8.5,5.1,8.1,5.5C7.7,5.8,7.4,6.2,7.2,6.8S6.8,7.9,6.7,8.5c-0.1,0.6-0.1,1.2-0.1,1.8v14.8
		c0,0.6,0,1.2,0.1,1.8c0.1,0.6,0.2,1.2,0.5,1.7s0.5,1,0.9,1.3c0.4,0.3,0.9,0.6,1.6,0.6v4.7c-1.8-0.1-3.2-0.4-4.4-1
		c-1.2-0.6-2.1-1.5-2.8-2.5c-0.7-1-1.2-2.3-1.5-3.6s-0.4-2.9-0.4-4.4V11.8c0-1.6,0.1-3.1,0.4-4.5s0.8-2.6,1.5-3.7
		c0.7-1,1.6-1.9,2.8-2.5s2.6-1,4.4-1V4.8z M10.6,0.1c1.6,0.1,3,0.4,4.1,1c1.1,0.6,2,1.4,2.7,2.3s1.2,2.1,1.5,3.5s0.4,2.8,0.4,4.3
		v2.6h-5.9v-2.9c0-0.7,0-1.4-0.1-2S13.2,7.6,13,7s-0.5-1.1-0.8-1.4s-0.9-0.6-1.5-0.7V0.1z M10.6,30.6c0.6-0.1,1.1-0.3,1.5-0.7
		s0.7-0.9,0.8-1.4s0.3-1.2,0.4-1.9c0.1-0.7,0.1-1.4,0.1-2.1v-3.2h5.9v2.6c0,1.5-0.2,2.9-0.4,4.2c-0.3,1.4-0.7,2.6-1.4,3.6
		c-0.7,1-1.5,1.9-2.7,2.5c-1.1,0.6-2.5,1-4.2,1.1V30.6z"/>
	<linearGradient id="SVGID_2_" gradientUnits="userSpaceOnUse" x1="21.1984" y1="6.7494" x2="43.1196" y2="28.6706">
		<stop  offset="0" style="stop-color:#5368FF"/>
		<stop  offset="1" style="stop-color:#662DB5"/>
	</linearGradient>
	<path class="st1" d="M31.7,4.8c-0.6,0.1-1.2,0.3-1.6,0.6c-0.4,0.3-0.7,0.8-1,1.3s-0.4,1.1-0.5,1.7c-0.1,0.6-0.1,1.2-0.1,1.8v14.9
		c0,0.6,0,1.2,0.1,1.8c0.1,0.6,0.2,1.2,0.5,1.7c0.2,0.5,0.5,0.9,1,1.3c0.4,0.3,0.9,0.6,1.6,0.6v4.7c-1.7-0.1-3.2-0.4-4.4-1
		s-2.1-1.5-2.8-2.5c-0.7-1-1.2-2.2-1.5-3.6s-0.5-2.8-0.5-4.4v-12c0-1.6,0.1-3.1,0.4-4.5s0.8-2.6,1.5-3.7c0.7-1,1.7-1.9,2.8-2.5
		s2.6-1,4.4-1V4.8z M32.6,0.1c1.7,0.1,3.2,0.4,4.4,1c1.2,0.6,2.1,1.5,2.8,2.5c0.7,1,1.2,2.3,1.5,3.7c0.3,1.4,0.5,2.9,0.5,4.5v11.9
		c0,1.6-0.2,3-0.5,4.4s-0.8,2.6-1.5,3.6c-0.7,1-1.7,1.9-2.8,2.5c-1.2,0.6-2.6,1-4.4,1v-4.7c0.7-0.1,1.2-0.3,1.6-0.6s0.7-0.8,1-1.3
		c0.2-0.5,0.4-1.1,0.5-1.7c0.1-0.6,0.1-1.2,0.1-1.8V10.3c0-0.6,0-1.2-0.1-1.8c-0.1-0.6-0.2-1.2-0.5-1.7c-0.2-0.5-0.6-0.9-1-1.3
		c-0.4-0.3-0.9-0.6-1.6-0.6V0.1z"/>
	<linearGradient id="SVGID_3_" gradientUnits="userSpaceOnUse" x1="43.4375" y1="3.1064" x2="72.6494" y2="32.3184">
		<stop  offset="0" style="stop-color:#5368FF"/>
		<stop  offset="1" style="stop-color:#662DB5"/>
	</linearGradient>
	<path class="st2" d="M45.8,34.7V0.7h4.7v33.9H45.8z M64.7,0.8v17.3l-5,16.6h-3.2l-5-16.6V0.8h0.3L58,26.1l6.2-25.4H64.7z
		 M65.6,34.7V0.7h4.7v33.9H65.6z"/>
	<linearGradient id="SVGID_4_" gradientUnits="userSpaceOnUse" x1="67.7125" y1="7.7196" x2="87.6981" y2="27.7052">
		<stop  offset="0" style="stop-color:#5368FF"/>
		<stop  offset="1" style="stop-color:#662DB5"/>
	</linearGradient>
	<path class="st3" d="M74.7,0.7h6v33.9h-6V0.7z"/>
	<linearGradient id="SVGID_5_" gradientUnits="userSpaceOnUse" x1="81.1807" y1="4.687" x2="107.2124" y2="30.7188">
		<stop  offset="0" style="stop-color:#5368FF"/>
		<stop  offset="1" style="stop-color:#662DB5"/>
	</linearGradient>
	<path class="st4" d="M89.5,0.7l0.8,2v32h-5.2v-34H89.5z M91.3,5l6,13.1v12.1l-6-13.7V5z M98.2,32.7v-32h5v34H99L98.2,32.7z"/>
	<linearGradient id="SVGID_6_" gradientUnits="userSpaceOnUse" x1="105.8916" y1="6.7973" x2="130.1861" y2="31.0918">
		<stop  offset="0" style="stop-color:#5368FF"/>
		<stop  offset="1" style="stop-color:#662DB5"/>
	</linearGradient>
	<path class="st5" d="M116.4,35.3c-0.1,0-0.2,0-0.2,0s-0.2,0-0.2,0c-1.1,0-2.1-0.2-3-0.5c-0.9-0.3-1.6-0.8-2.3-1.3
		c-0.6-0.6-1.2-1.2-1.6-1.9c-0.4-0.7-0.8-1.5-1.1-2.3c-0.3-0.8-0.5-1.7-0.6-2.5c-0.1-0.9-0.2-1.7-0.2-2.5V11.8
		c0-1.6,0.1-3.1,0.4-4.5c0.3-1.4,0.8-2.6,1.5-3.7s1.7-1.9,2.8-2.5c1.2-0.6,2.7-1,4.4-1v4.7c-0.7,0.1-1.2,0.3-1.6,0.6s-0.7,0.8-1,1.3
		s-0.4,1.1-0.5,1.7c-0.1,0.6-0.1,1.2-0.1,1.8v15.1c0,0.6,0,1.1,0.1,1.7c0.1,0.6,0.2,1.1,0.5,1.6s0.5,0.9,1,1.3s0.9,0.6,1.6,0.6V35.3
		z M117.3,30.6c0.7-0.1,1.2-0.3,1.7-0.6c0.4-0.4,0.8-0.8,1-1.3c0.2-0.5,0.4-1.1,0.5-1.7s0.1-1.2,0.1-1.8v-3.4h-2.5v-4.4h8.5v17.2h-4
		l-0.9-2.6c-0.4,0.8-1.1,1.4-1.8,2c-0.8,0.5-1.6,0.9-2.6,1.1V30.6z M117.4,0.1c1.7,0.1,3.1,0.4,4.2,1c1.1,0.6,2.1,1.4,2.8,2.4
		c0.7,1,1.2,2.2,1.5,3.6s0.5,2.8,0.5,4.4V13h-5.8v-1.9c0-0.7,0-1.4-0.1-2.1c-0.1-0.7-0.2-1.4-0.4-2c-0.2-0.6-0.5-1.1-1-1.5
		c-0.4-0.4-1-0.6-1.7-0.7V0.1z"/>
	<linearGradient id="SVGID_7_" gradientUnits="userSpaceOnUse" x1="18.9513" y1="53.5784" x2="40.7349" y2="75.3621">
		<stop  offset="0" style="stop-color:#5368FF"/>
		<stop  offset="1" style="stop-color:#662DB5"/>
	</linearGradient>
	<path class="st6" d="M29.5,82.1c-1.4-0.1-2.7-0.4-3.8-1s-1.9-1.3-2.6-2.3s-1.3-2-1.6-3.1c-0.4-1.2-0.6-2.4-0.7-3.6l6-1.2
		c0,0.7,0.1,1.4,0.2,2.1c0.1,0.7,0.2,1.4,0.4,2c0.2,0.6,0.5,1.1,0.8,1.6s0.8,0.7,1.3,0.9V82.1z M27.2,65.8l-1.4-1.3
		c-0.6-0.6-1.3-1.1-1.9-1.7s-1.1-1.3-1.6-2c-0.5-0.7-0.9-1.5-1.1-2.4c-0.3-0.9-0.4-1.9-0.4-2.9c0-1.3,0.2-2.4,0.6-3.4s1-1.9,1.7-2.6
		c0.7-0.7,1.6-1.3,2.7-1.7c1-0.4,2.2-0.7,3.4-0.8v4.6c-0.4,0-0.8,0.2-1.1,0.4s-0.6,0.4-0.8,0.7c-0.2,0.3-0.4,0.6-0.5,1
		s-0.2,0.8-0.2,1.2c0,0.6,0.1,1.1,0.2,1.6c0.1,0.5,0.3,1,0.6,1.4c0.3,0.4,0.6,0.8,0.9,1.2c0.3,0.4,0.7,0.8,1.1,1.1
		c0.2,0.2,0.4,0.4,0.7,0.7c0.3,0.3,0.6,0.6,1,0.9L27.2,65.8z M31.9,62.4l0.7,0.6c0.8,0.8,1.6,1.5,2.3,2.3c0.7,0.8,1.4,1.6,1.9,2.5
		c0.5,0.9,1,1.8,1.3,2.9s0.5,2.2,0.5,3.4c0,1.2-0.2,2.3-0.6,3.2s-1,1.8-1.8,2.5c-0.7,0.7-1.6,1.2-2.6,1.6s-2.1,0.6-3.2,0.6v-4.6
		c0.4,0,0.8-0.1,1.1-0.3s0.5-0.4,0.7-0.7s0.3-0.6,0.4-1c0.1-0.4,0.1-0.8,0.1-1.2c0-0.7-0.1-1.4-0.4-2.1c-0.2-0.7-0.5-1.3-0.9-1.9
		c-0.4-0.6-0.8-1.2-1.3-1.7c-0.5-0.6-1-1.1-1.5-1.6l-0.8-0.7L31.9,62.4z M30.2,46.9c1.2,0,2.3,0.3,3.2,0.7c1,0.4,1.9,1,2.6,1.8
		s1.3,1.6,1.8,2.7c0.4,1,0.7,2.1,0.7,3.3V56l-6.1,1c0-0.2,0-0.4,0-0.6s0-0.4,0-0.6c0-0.4-0.1-0.9-0.2-1.3s-0.2-0.9-0.4-1.3
		c-0.2-0.4-0.4-0.7-0.7-1s-0.6-0.5-1-0.6V46.9z"/>
	<linearGradient id="SVGID_8_" gradientUnits="userSpaceOnUse" x1="40.0602" y1="53.5492" x2="61.9814" y2="75.4704">
		<stop  offset="0" style="stop-color:#5368FF"/>
		<stop  offset="1" style="stop-color:#662DB5"/>
	</linearGradient>
	<path class="st7" d="M50.5,51.6c-0.6,0.1-1.2,0.3-1.6,0.6c-0.4,0.3-0.7,0.8-1,1.3s-0.4,1.1-0.5,1.7c-0.1,0.6-0.1,1.2-0.1,1.8V72
		c0,0.6,0,1.2,0.1,1.8c0.1,0.6,0.2,1.2,0.5,1.7c0.2,0.5,0.5,0.9,1,1.3c0.4,0.3,0.9,0.6,1.6,0.6v4.7c-1.7-0.1-3.2-0.4-4.4-1
		s-2.1-1.5-2.8-2.5c-0.7-1-1.2-2.2-1.5-3.6s-0.5-2.8-0.5-4.4v-12c0-1.6,0.1-3.1,0.4-4.5s0.8-2.6,1.5-3.7c0.7-1,1.7-1.9,2.8-2.5
		s2.6-1,4.4-1V51.6z M51.5,46.9c1.7,0.1,3.2,0.4,4.4,1c1.2,0.6,2.1,1.5,2.8,2.5c0.7,1,1.2,2.3,1.5,3.7c0.3,1.4,0.5,2.9,0.5,4.5v11.9
		c0,1.6-0.2,3-0.5,4.4s-0.8,2.6-1.5,3.6c-0.7,1-1.7,1.9-2.8,2.5c-1.2,0.6-2.6,1-4.4,1v-4.7c0.7-0.1,1.2-0.3,1.6-0.6s0.7-0.8,1-1.3
		c0.2-0.5,0.4-1.1,0.5-1.7c0.1-0.6,0.1-1.2,0.1-1.8V57.1c0-0.6,0-1.2-0.1-1.8c-0.1-0.6-0.2-1.2-0.5-1.7c-0.2-0.5-0.6-0.9-1-1.3
		c-0.4-0.3-0.9-0.6-1.6-0.6V46.9z"/>
	<linearGradient id="SVGID_9_" gradientUnits="userSpaceOnUse" x1="62.8737" y1="53.5492" x2="84.7949" y2="75.4704">
		<stop  offset="0" style="stop-color:#5368FF"/>
		<stop  offset="1" style="stop-color:#662DB5"/>
	</linearGradient>
	<path class="st8" d="M73.4,51.6c-0.6,0.1-1.2,0.3-1.6,0.6c-0.4,0.3-0.7,0.8-1,1.3s-0.4,1.1-0.5,1.7c-0.1,0.6-0.1,1.2-0.1,1.8V72
		c0,0.6,0,1.2,0.1,1.8c0.1,0.6,0.2,1.2,0.5,1.7c0.2,0.5,0.5,0.9,1,1.3c0.4,0.3,0.9,0.6,1.6,0.6v4.7c-1.7-0.1-3.2-0.4-4.4-1
		s-2.1-1.5-2.8-2.5c-0.7-1-1.2-2.2-1.5-3.6s-0.5-2.8-0.5-4.4v-12c0-1.6,0.1-3.1,0.4-4.5s0.8-2.6,1.5-3.7c0.7-1,1.7-1.9,2.8-2.5
		s2.6-1,4.4-1V51.6z M74.3,46.9c1.7,0.1,3.2,0.4,4.4,1c1.2,0.6,2.1,1.5,2.8,2.5c0.7,1,1.2,2.3,1.5,3.7c0.3,1.4,0.5,2.9,0.5,4.5v11.9
		c0,1.6-0.2,3-0.5,4.4s-0.8,2.6-1.5,3.6c-0.7,1-1.7,1.9-2.8,2.5c-1.2,0.6-2.6,1-4.4,1v-4.7c0.7-0.1,1.2-0.3,1.6-0.6s0.7-0.8,1-1.3
		c0.2-0.5,0.4-1.1,0.5-1.7c0.1-0.6,0.1-1.2,0.1-1.8V57.1c0-0.6,0-1.2-0.1-1.8c-0.1-0.6-0.2-1.2-0.5-1.7c-0.2-0.5-0.6-0.9-1-1.3
		c-0.4-0.3-0.9-0.6-1.6-0.6V46.9z"/>
	<linearGradient id="SVGID_10_" gradientUnits="userSpaceOnUse" x1="83.5132" y1="51.4868" x2="109.5449" y2="77.5186">
		<stop  offset="0" style="stop-color:#5368FF"/>
		<stop  offset="1" style="stop-color:#662DB5"/>
	</linearGradient>
	<path class="st9" d="M91.8,47.5l0.8,2v32h-5.2v-34H91.8z M93.6,51.8l6,13.1v12.1l-6-13.7V51.8z M100.6,79.5v-32h5v34h-4.2
		L100.6,79.5z"/>
	<linearGradient id="SVGID_11_" gradientUnits="userSpaceOnUse" x1="53.8059" y1="101.3435" x2="73.5916" y2="121.1292">
		<stop  offset="0" style="stop-color:#5368FF"/>
		<stop  offset="1" style="stop-color:#662DB5"/>
	</linearGradient>
	<path class="st10" d="M60.8,94.4h5.9l-2.1,25.4h-1.9L60.8,94.4z M60.9,122.8h5.6v5.4h-5.6V122.8z"/>
</g>
</svg>
