<svg id="Слой_1" xmlns="http://www.w3.org/2000/svg" viewBox="0 0 126.8 128.3"><style>.st0{fill:url(#SVGID_1_)}.st1{fill:url(#SVGID_2_)}.st2{fill:url(#SVGID_3_)}.st3{fill:url(#SVGID_4_)}.st4{fill:url(#SVGID_5_)}.st5{fill:url(#SVGID_6_)}.st6{fill:url(#SVGID_7_)}.st7{fill:url(#SVGID_8_)}.st8{fill:url(#SVGID_9_)}.st9{fill:url(#SVGID_10_)}.st10{fill:url(#SVGID_11_)}</style><linearGradient id="SVGID_1_" gradientUnits="userSpaceOnUse" x1="-.826" y1="6.801" x2="20.919" y2="28.546"><stop offset="0" stop-color="#5368ff"/><stop offset="1" stop-color="#662db5"/></linearGradient><path class="st0" d="M9.7 4.8c-.7.1-1.2.3-1.6.7-.4.3-.7.7-.9 1.3s-.4 1.1-.5 1.7c-.1.6-.1 1.2-.1 1.8v14.8c0 .6 0 1.2.1 1.8.1.6.2 1.2.5 1.7s.5 1 .9 1.3c.4.3.9.6 1.6.6v4.7c-1.8-.1-3.2-.4-4.4-1-1.2-.6-2.1-1.5-2.8-2.5-.7-1-1.2-2.3-1.5-3.6s-.4-2.9-.4-4.4V11.8c0-1.6.1-3.1.4-4.5s.8-2.6 1.5-3.7c.7-1 1.6-1.9 2.8-2.5s2.6-1 4.4-1v4.7zm.9-4.7c1.6.1 3 .4 4.1 1 1.1.6 2 1.4 2.7 2.3s1.2 2.1 1.5 3.5.4 2.8.4 4.3v2.6h-5.9v-2.9c0-.7 0-1.4-.1-2S13.2 7.6 13 7s-.5-1.1-.8-1.4-.9-.6-1.5-.7V.1zm0 30.5c.6-.1 1.1-.3 1.5-.7s.7-.9.8-1.4.3-1.2.4-1.9c.1-.7.1-1.4.1-2.1v-3.2h5.9v2.6c0 1.5-.2 2.9-.4 4.2-.3 1.4-.7 2.6-1.4 3.6s-1.5 1.9-2.7 2.5c-1.1.6-2.5 1-4.2 1.1v-4.7z"/><linearGradient id="SVGID_2_" gradientUnits="userSpaceOnUse" x1="21.198" y1="6.749" x2="43.12" y2="28.671"><stop offset="0" stop-color="#5368ff"/><stop offset="1" stop-color="#662db5"/></linearGradient><path class="st1" d="M31.7 4.8c-.6.1-1.2.3-1.6.6-.4.3-.7.8-1 1.3s-.4 1.1-.5 1.7c-.1.6-.1 1.2-.1 1.8v14.9c0 .6 0 1.2.1 1.8.1.6.2 1.2.5 1.7.2.5.5.9 1 1.3.4.3.9.6 1.6.6v4.7c-1.7-.1-3.2-.4-4.4-1s-2.1-1.5-2.8-2.5c-.7-1-1.2-2.2-1.5-3.6s-.5-2.8-.5-4.4v-12c0-1.6.1-3.1.4-4.5s.8-2.6 1.5-3.7c.7-1 1.7-1.9 2.8-2.5s2.6-1 4.4-1v4.8zm.9-4.7c1.7.1 3.2.4 4.4 1 1.2.6 2.1 1.5 2.8 2.5.7 1 1.2 2.3 1.5 3.7.3 1.4.5 2.9.5 4.5v11.9c0 1.6-.2 3-.5 4.4s-.8 2.6-1.5 3.6-1.7 1.9-2.8 2.5c-1.2.6-2.6 1-4.4 1v-4.7c.7-.1 1.2-.3 1.6-.6s.7-.8 1-1.3c.2-.5.4-1.1.5-1.7.1-.6.1-1.2.1-1.8V10.3c0-.6 0-1.2-.1-1.8-.1-.6-.2-1.2-.5-1.7-.2-.5-.6-.9-1-1.3-.4-.3-.9-.6-1.6-.6V.1z"/><linearGradient id="SVGID_3_" gradientUnits="userSpaceOnUse" x1="43.438" y1="3.106" x2="72.649" y2="32.318"><stop offset="0" stop-color="#5368ff"/><stop offset="1" stop-color="#662db5"/></linearGradient><path class="st2" d="M45.8 34.7V.7h4.7v33.9h-4.7zM64.7.8v17.3l-5 16.6h-3.2l-5-16.6V.8h.3L58 26.1 64.2.7h.5zm.9 33.9V.7h4.7v33.9h-4.7z"/><linearGradient id="SVGID_4_" gradientUnits="userSpaceOnUse" x1="67.713" y1="7.72" x2="87.698" y2="27.705"><stop offset="0" stop-color="#5368ff"/><stop offset="1" stop-color="#662db5"/></linearGradient><path class="st3" d="M74.7.7h6v33.9h-6V.7z"/><linearGradient id="SVGID_5_" gradientUnits="userSpaceOnUse" x1="81.181" y1="4.687" x2="107.212" y2="30.719"><stop offset="0" stop-color="#5368ff"/><stop offset="1" stop-color="#662db5"/></linearGradient><path class="st4" d="M89.5.7l.8 2v32h-5.2V.7h4.4zM91.3 5l6 13.1v12.1l-6-13.7V5zm6.9 27.7V.7h5v34H99l-.8-2z"/><linearGradient id="SVGID_6_" gradientUnits="userSpaceOnUse" x1="105.892" y1="6.797" x2="130.186" y2="31.092"><stop offset="0" stop-color="#5368ff"/><stop offset="1" stop-color="#662db5"/></linearGradient><path class="st5" d="M116.4 35.3h-.4c-1.1 0-2.1-.2-3-.5-.9-.3-1.6-.8-2.3-1.3-.6-.6-1.2-1.2-1.6-1.9-.4-.7-.8-1.5-1.1-2.3-.3-.8-.5-1.7-.6-2.5-.1-.9-.2-1.7-.2-2.5V11.8c0-1.6.1-3.1.4-4.5.3-1.4.8-2.6 1.5-3.7s1.7-1.9 2.8-2.5c1.2-.6 2.7-1 4.4-1v4.7c-.7.1-1.2.3-1.6.6s-.7.8-1 1.3-.4 1.1-.5 1.7c-.1.6-.1 1.2-.1 1.8v15.1c0 .6 0 1.1.1 1.7.1.6.2 1.1.5 1.6s.5.9 1 1.3.9.6 1.6.6v4.8zm.9-4.7c.7-.1 1.2-.3 1.7-.6.4-.4.8-.8 1-1.3.2-.5.4-1.1.5-1.7s.1-1.2.1-1.8v-3.4h-2.5v-4.4h8.5v17.2h-4l-.9-2.6c-.4.8-1.1 1.4-1.8 2-.8.5-1.6.9-2.6 1.1v-4.5zm.1-30.5c1.7.1 3.1.4 4.2 1s2.1 1.4 2.8 2.4c.7 1 1.2 2.2 1.5 3.6s.5 2.8.5 4.4V13h-5.8v-1.9c0-.7 0-1.4-.1-2.1-.1-.7-.2-1.4-.4-2-.2-.6-.5-1.1-1-1.5-.4-.4-1-.6-1.7-.7V.1z"/><linearGradient id="SVGID_7_" gradientUnits="userSpaceOnUse" x1="18.951" y1="53.578" x2="40.735" y2="75.362"><stop offset="0" stop-color="#5368ff"/><stop offset="1" stop-color="#662db5"/></linearGradient><path class="st6" d="M29.5 82.1c-1.4-.1-2.7-.4-3.8-1s-1.9-1.3-2.6-2.3-1.3-2-1.6-3.1c-.4-1.2-.6-2.4-.7-3.6l6-1.2c0 .7.1 1.4.2 2.1.1.7.2 1.4.4 2 .2.6.5 1.1.8 1.6s.8.7 1.3.9v4.6zm-2.3-16.3l-1.4-1.3c-.6-.6-1.3-1.1-1.9-1.7s-1.1-1.3-1.6-2-.9-1.5-1.1-2.4c-.3-.9-.4-1.9-.4-2.9 0-1.3.2-2.4.6-3.4s1-1.9 1.7-2.6c.7-.7 1.6-1.3 2.7-1.7 1-.4 2.2-.7 3.4-.8v4.6c-.4 0-.8.2-1.1.4s-.6.4-.8.7c-.2.3-.4.6-.5 1s-.2.8-.2 1.2c0 .6.1 1.1.2 1.6s.3 1 .6 1.4l.9 1.2c.3.4.7.8 1.1 1.1l.7.7c.3.3.6.6 1 .9l-3.9 4zm4.7-3.4l.7.6c.8.8 1.6 1.5 2.3 2.3.7.8 1.4 1.6 1.9 2.5.5.9 1 1.8 1.3 2.9s.5 2.2.5 3.4c0 1.2-.2 2.3-.6 3.2s-1 1.8-1.8 2.5c-.7.7-1.6 1.2-2.6 1.6s-2.1.6-3.2.6v-4.6c.4 0 .8-.1 1.1-.3s.5-.4.7-.7.3-.6.4-1c.1-.4.1-.8.1-1.2 0-.7-.1-1.4-.4-2.1-.2-.7-.5-1.3-.9-1.9-.4-.6-.8-1.2-1.3-1.7-.5-.6-1-1.1-1.5-1.6l-.8-.7 4.1-3.8zm-1.7-15.5c1.2 0 2.3.3 3.2.7 1 .4 1.9 1 2.6 1.8s1.3 1.6 1.8 2.7c.4 1 .7 2.1.7 3.3v.6l-6.1 1v-1.2c0-.4-.1-.9-.2-1.3s-.2-.9-.4-1.3-.4-.7-.7-1-.6-.5-1-.6v-4.7z"/><linearGradient id="SVGID_8_" gradientUnits="userSpaceOnUse" x1="40.06" y1="53.549" x2="61.981" y2="75.47"><stop offset="0" stop-color="#5368ff"/><stop offset="1" stop-color="#662db5"/></linearGradient><path class="st7" d="M50.5 51.6c-.6.1-1.2.3-1.6.6-.4.3-.7.8-1 1.3s-.4 1.1-.5 1.7c-.1.6-.1 1.2-.1 1.8v15c0 .6 0 1.2.1 1.8.1.6.2 1.2.5 1.7.2.5.5.9 1 1.3.4.3.9.6 1.6.6v4.7c-1.7-.1-3.2-.4-4.4-1s-2.1-1.5-2.8-2.5c-.7-1-1.2-2.2-1.5-3.6s-.5-2.8-.5-4.4v-12c0-1.6.1-3.1.4-4.5s.8-2.6 1.5-3.7c.7-1 1.7-1.9 2.8-2.5s2.6-1 4.4-1v4.7zm1-4.7c1.7.1 3.2.4 4.4 1 1.2.6 2.1 1.5 2.8 2.5.7 1 1.2 2.3 1.5 3.7.3 1.4.5 2.9.5 4.5v11.9c0 1.6-.2 3-.5 4.4s-.8 2.6-1.5 3.6-1.7 1.9-2.8 2.5c-1.2.6-2.6 1-4.4 1v-4.7c.7-.1 1.2-.3 1.6-.6s.7-.8 1-1.3c.2-.5.4-1.1.5-1.7.1-.6.1-1.2.1-1.8V57.1c0-.6 0-1.2-.1-1.8-.1-.6-.2-1.2-.5-1.7-.2-.5-.6-.9-1-1.3-.4-.3-.9-.6-1.6-.6v-4.8z"/><linearGradient id="SVGID_9_" gradientUnits="userSpaceOnUse" x1="62.874" y1="53.549" x2="84.795" y2="75.47"><stop offset="0" stop-color="#5368ff"/><stop offset="1" stop-color="#662db5"/></linearGradient><path class="st8" d="M73.4 51.6c-.6.1-1.2.3-1.6.6-.4.3-.7.8-1 1.3s-.4 1.1-.5 1.7c-.1.6-.1 1.2-.1 1.8v15c0 .6 0 1.2.1 1.8.1.6.2 1.2.5 1.7.2.5.5.9 1 1.3.4.3.9.6 1.6.6v4.7c-1.7-.1-3.2-.4-4.4-1s-2.1-1.5-2.8-2.5c-.7-1-1.2-2.2-1.5-3.6s-.5-2.8-.5-4.4v-12c0-1.6.1-3.1.4-4.5s.8-2.6 1.5-3.7c.7-1 1.7-1.9 2.8-2.5s2.6-1 4.4-1v4.7zm.9-4.7c1.7.1 3.2.4 4.4 1 1.2.6 2.1 1.5 2.8 2.5.7 1 1.2 2.3 1.5 3.7.3 1.4.5 2.9.5 4.5v11.9c0 1.6-.2 3-.5 4.4s-.8 2.6-1.5 3.6-1.7 1.9-2.8 2.5c-1.2.6-2.6 1-4.4 1v-4.7c.7-.1 1.2-.3 1.6-.6s.7-.8 1-1.3c.2-.5.4-1.1.5-1.7.1-.6.1-1.2.1-1.8V57.1c0-.6 0-1.2-.1-1.8-.1-.6-.2-1.2-.5-1.7-.2-.5-.6-.9-1-1.3-.4-.3-.9-.6-1.6-.6v-4.8z"/><linearGradient id="SVGID_10_" gradientUnits="userSpaceOnUse" x1="83.513" y1="51.487" x2="109.545" y2="77.519"><stop offset="0" stop-color="#5368ff"/><stop offset="1" stop-color="#662db5"/></linearGradient><path class="st9" d="M91.8 47.5l.8 2v32h-5.2v-34h4.4zm1.8 4.3l6 13.1V77l-6-13.7V51.8zm7 27.7v-32h5v34h-4.2l-.8-2z"/><linearGradient id="SVGID_11_" gradientUnits="userSpaceOnUse" x1="53.806" y1="101.344" x2="73.592" y2="121.129"><stop offset="0" stop-color="#5368ff"/><stop offset="1" stop-color="#662db5"/></linearGradient><path class="st10" d="M60.8 94.4h5.9l-2.1 25.4h-1.9l-1.9-25.4zm.1 28.4h5.6v5.4h-5.6v-5.4z"/></svg>